<!--?xml version="1.0" encoding="utf-8"?-->
<!-- Generator: Adobe Illustrator 18.1.1, SVG Export Plug-In . SVG Version: 6.00 Build 0)  -->

<svg version="1.1" id="_x32_" xmlns="http://www.w3.org/2000/svg" xmlns:xlink="http://www.w3.org/1999/xlink" x="0px" y="0px" viewBox="0 0 512 512" style="width: 256px; height: 256px; opacity: 1;" xml:space="preserve">
<style type="text/css">
	.st0{fill:#4B4B4B;}
</style>
<g>
	<path class="st0" d="M458.76,177.773c11.495-18.715,18.459-38.9,20.077-58.886l-105.552,1.147l104.19-29.039
		c-4.67-24.987-18.864-48.423-44.437-66.726c-2.352-1.708-4.712-3.268-7.072-4.769L374.21,52.112l31.598-43.208
		C379.442-2.152,354.604-1.79,332.86,3.904l-39.783,86.878l-2.204-68.335c-13.714,8.524-24.492,17.618-31.39,23.782
		c-7.757,6.891-16.628,15.16-27.182,25.788l-0.026,89.03L207.718,97.73c-12.197,13.236-26.216,29.063-42.564,48.315l2.996,71.404
		l-15.448,11.818l-12.122-53.77c-1.073,1.337-2.138,2.624-3.26,3.961C77.146,252.899,60.973,325.005,84.292,363.51
		c112.756-157.217,210.683-254.244,211.31-254.888c7.484-7.435,25.664-8.301,34.278-2.996
		C294.702,141.605,163.958,280.28,39.502,477.774c-6.602,10.489-10.225,24.17,0.255,30.764c10.481,6.61,24.32,3.474,30.921-7.023
		c21.257-33.709,42.704-65.686,63.821-95.731l10.752,9.201c44.627,21.538,105.717,9.968,151.375-45.015l-110.874-31.035
		l9.531-15.712c0.561-0.743,1.122-1.477,1.684-2.212l124.572,19.136c14.886-17.601,31.655-37.059,48.836-56.938l-103.042-26.25
		l5.29-15.827c0,0,89.402,6.766,125.628,9.927c12.453-14.366,24.74-28.536,36.293-41.954l-67.757-19.012l5.009-10.793
		L458.76,177.773z" style="fill: rgb(75, 75, 75);"></path>
</g>
</svg>
